<?xml version="1.0" standalone="no"?>
<!DOCTYPE svg PUBLIC "-//W3C//DTD SVG 20010904//EN"
 "http://www.w3.org/TR/2001/REC-SVG-20010904/DTD/svg10.dtd">
<svg version="1.0" xmlns="http://www.w3.org/2000/svg"
 width="514.000000pt" height="239.000000pt" viewBox="0 0 514.000000 239.000000"
 preserveAspectRatio="xMidYMid meet">

<g transform="translate(0.000000,239.000000) scale(0.100000,-0.100000)"
fill="#000000" stroke="none">
<path d="M2295 1676 c-65 -21 -99 -42 -144 -91 -171 -186 -127 -505 84 -601
102 -47 244 -47 340 1 50 24 135 90 135 104 0 4 -25 36 -56 70 l-57 62 -36
-34 c-85 -82 -160 -88 -222 -18 -39 44 -49 75 -49 154 0 111 48 187 118 187
48 0 82 -30 98 -87 l11 -38 89 0 89 0 0 145 0 145 -77 3 c-71 3 -78 1 -89 -20
-6 -13 -13 -25 -15 -27 -1 -2 -15 6 -31 17 -30 21 -95 42 -128 41 -11 0 -38
-6 -60 -13z"/>
<path d="M4133 1621 l-83 -26 0 -47 c0 -47 -1 -48 -30 -48 l-30 0 0 -65 0 -65
29 0 29 0 4 -152 c4 -168 13 -201 64 -228 29 -16 150 -20 197 -7 26 7 27 10
27 72 l0 65 -27 -6 c-16 -4 -30 -8 -32 -10 -2 -2 -12 1 -22 7 -17 9 -19 23
-19 134 l0 125 50 0 50 0 0 65 0 65 -50 0 -50 0 0 75 c0 54 -4 75 -12 74 -7
-1 -50 -13 -95 -28z"/>
<path d="M3125 1509 c-16 -7 -44 -25 -61 -41 l-31 -29 -13 30 -12 31 -109 0
-109 0 0 -70 c0 -63 2 -70 20 -70 19 0 20 -7 20 -120 0 -113 -1 -120 -20 -120
-18 0 -20 -7 -20 -65 l0 -65 160 0 160 0 0 65 0 65 -41 0 -41 0 4 99 c4 108
19 141 63 141 49 0 55 -23 55 -203 l0 -167 130 0 130 0 0 65 c0 58 -2 65 -20
65 -18 0 -20 7 -20 78 -1 176 -30 265 -97 297 -43 21 -112 27 -148 14z"/>
<path d="M3593 1494 c-51 -19 -112 -76 -137 -129 -11 -22 -21 -69 -23 -105
-15 -205 165 -334 385 -276 52 14 142 61 142 74 0 4 -18 28 -40 53 l-39 47
-47 -24 c-79 -40 -164 -28 -191 26 l-12 25 161 5 162 5 8 35 c10 49 -7 137
-37 182 -13 20 -46 49 -72 64 -39 24 -60 28 -132 31 -59 2 -99 -2 -128 -13z
m171 -140 c9 -8 16 -24 16 -35 0 -17 -8 -19 -70 -19 -75 0 -83 7 -54 48 18 27
84 31 108 6z"/>
<path d="M730 1183 l0 -299 266 -152 267 -152 264 152 264 151 -3 100 -3 100
-77 46 c-43 25 -78 49 -78 52 0 3 36 27 80 53 l80 48 0 99 0 100 -31 -17 c-18
-9 -77 -43 -132 -76 -55 -32 -136 -79 -181 -103 -44 -24 -104 -56 -132 -71
l-51 -28 -82 47 c-44 26 -83 47 -86 47 -3 0 -5 -47 -5 -104 l0 -103 82 -47
c45 -25 86 -46 90 -46 5 0 48 22 96 49 l87 50 75 -41 c41 -22 79 -44 83 -48 4
-4 -71 -52 -168 -108 l-175 -101 -178 103 -177 102 -3 195 -2 194 -63 40 c-34
21 -72 45 -84 53 l-23 14 0 -299z"/>
<path d="M2130 770 c0 -5 11 -10 25 -10 24 0 25 -3 25 -60 0 -33 4 -60 10 -60
6 0 10 27 10 60 0 57 1 60 25 60 14 0 25 5 25 10 0 6 -27 10 -60 10 -33 0 -60
-4 -60 -10z"/>
<path d="M2360 710 l0 -70 45 0 c25 0 45 5 45 10 0 6 -16 10 -35 10 -28 0 -35
4 -35 20 0 16 7 20 30 20 17 0 30 5 30 10 0 6 -13 10 -30 10 -23 0 -30 4 -30
20 0 16 7 20 35 20 19 0 35 5 35 10 0 6 -20 10 -45 10 l-45 0 0 -70z"/>
<path d="M2581 761 c-57 -57 7 -144 83 -115 28 11 17 24 -14 18 -37 -8 -60 9
-60 46 0 35 22 54 55 47 16 -3 24 0 22 7 -7 21 -64 19 -86 -3z"/>
<path d="M2800 710 c0 -40 4 -70 10 -70 6 0 10 14 10 30 0 28 3 30 35 30 32 0
35 -2 35 -30 0 -16 5 -30 10 -30 6 0 10 30 10 70 0 40 -4 70 -10 70 -5 0 -10
-13 -10 -30 0 -28 -3 -30 -35 -30 -32 0 -35 2 -35 30 0 17 -4 30 -10 30 -6 0
-10 -30 -10 -70z"/>
<path d="M3040 710 c0 -81 17 -95 22 -18 l3 52 35 -52 c48 -71 60 -68 60 18 0
40 -4 70 -10 70 -5 0 -10 -20 -10 -45 0 -25 -4 -45 -8 -45 -5 0 -23 20 -41 45
-18 25 -36 45 -42 45 -5 0 -9 -31 -9 -70z"/>
<path d="M3297 762 c-25 -28 -22 -87 5 -106 34 -24 73 -20 97 10 12 15 21 34
21 44 0 10 -9 29 -21 44 -25 32 -77 36 -102 8z m81 -14 c7 -7 12 -24 12 -38 0
-52 -61 -71 -82 -25 -23 51 32 101 70 63z"/>
<path d="M3540 710 l0 -70 40 0 c22 0 40 5 40 10 0 6 -13 10 -30 10 l-30 0 0
60 c0 33 -4 60 -10 60 -6 0 -10 -30 -10 -70z"/>
<path d="M3747 762 c-23 -25 -22 -85 1 -105 25 -22 75 -21 95 1 23 25 22 85
-1 105 -25 22 -75 21 -95 -1z m81 -14 c7 -7 12 -24 12 -38 0 -31 -17 -50 -45
-50 -28 0 -45 19 -45 50 0 31 17 50 45 50 12 0 26 -5 33 -12z"/>
<path d="M3997 762 c-25 -28 -22 -87 5 -106 44 -31 98 -17 98 25 0 25 -4 29
-27 29 -25 -1 -26 -2 -10 -14 26 -20 20 -36 -13 -36 -40 0 -59 37 -41 76 10
24 16 26 51 21 40 -5 54 5 24 17 -30 12 -71 6 -87 -12z"/>
<path d="M4234 734 c14 -26 26 -57 26 -70 0 -13 5 -24 10 -24 6 0 10 12 10 27
0 14 11 46 25 70 18 30 22 43 13 43 -8 0 -22 -14 -32 -31 l-18 -31 -19 31
c-30 50 -43 36 -15 -15z"/>
</g>
</svg>
